<?xml version="1.0" encoding="UTF-8" standalone="no"?>
<!DOCTYPE svg PUBLIC "-//W3C//DTD SVG 1.1//EN"
 "http://www.w3.org/Graphics/SVG/1.1/DTD/svg11.dtd">
<!-- Generated by graphviz version 2.43.0 (0)
 -->
<!-- Title: G Pages: 1 -->
<svg width="624pt" height="1121pt"
 viewBox="0.00 0.00 624.33 1120.59" xmlns="http://www.w3.org/2000/svg" xmlns:xlink="http://www.w3.org/1999/xlink">
<g id="graph0" class="graph" transform="scale(1 1) rotate(0) translate(4 1116.59)">
<title>G</title><style>.edge>path:hover{stroke-width:8}</style>
<polygon fill="white" stroke="transparent" points="-4,4 -4,-1116.59 620.33,-1116.59 620.33,4 -4,4"/>
<!-- netqasm_lang_encoding -->
<g id="node1" class="node">
<title>netqasm_lang_encoding</title><style>.edge>path:hover{stroke-width:8}</style>
<ellipse fill="#f31616" stroke="black" cx="282.93" cy="-1083.6" rx="43.68" ry="28.98"/>
<text text-anchor="middle" x="282.93" y="-1092.1" font-family="Helvetica,sans-Serif" font-size="10.00" fill="#ffffff">netqasm.</text>
<text text-anchor="middle" x="282.93" y="-1081.1" font-family="Helvetica,sans-Serif" font-size="10.00" fill="#ffffff">lang.</text>
<text text-anchor="middle" x="282.93" y="-1070.1" font-family="Helvetica,sans-Serif" font-size="10.00" fill="#ffffff">encoding</text>
</g>
<!-- netqasm_lang_instr_base -->
<g id="node3" class="node">
<title>netqasm_lang_instr_base</title><style>.edge>path:hover{stroke-width:8}</style>
<ellipse fill="#bc2f2f" stroke="black" cx="259.93" cy="-793.87" rx="43.68" ry="36.54"/>
<text text-anchor="middle" x="259.93" y="-807.87" font-family="Helvetica,sans-Serif" font-size="10.00" fill="#ffffff">netqasm.</text>
<text text-anchor="middle" x="259.93" y="-796.87" font-family="Helvetica,sans-Serif" font-size="10.00" fill="#ffffff">lang.</text>
<text text-anchor="middle" x="259.93" y="-785.87" font-family="Helvetica,sans-Serif" font-size="10.00" fill="#ffffff">instr.</text>
<text text-anchor="middle" x="259.93" y="-774.87" font-family="Helvetica,sans-Serif" font-size="10.00" fill="#ffffff">base</text>
</g>
<!-- netqasm_lang_encoding&#45;&gt;netqasm_lang_instr_base -->
<g id="edge1" class="edge">
<title>netqasm_lang_encoding&#45;&gt;netqasm_lang_instr_base</title><style>.edge>path:hover{stroke-width:8}</style>
<path fill="none" stroke="black" d="M183.93,-894.64C177.25,-867.12 196.97,-841.82 217.98,-823.58"/>
<polygon fill="#f31616" stroke="black" points="220.25,-826.25 225.74,-817.19 215.8,-820.85 220.25,-826.25"/>
</g>
<!-- netqasm_lang_operand -->
<g id="node9" class="node">
<title>netqasm_lang_operand</title><style>.edge>path:hover{stroke-width:8}</style>
<ellipse fill="#d31717" stroke="black" cx="331.93" cy="-989.62" rx="43.68" ry="28.98"/>
<text text-anchor="middle" x="331.93" y="-998.12" font-family="Helvetica,sans-Serif" font-size="10.00" fill="#ffffff">netqasm.</text>
<text text-anchor="middle" x="331.93" y="-987.12" font-family="Helvetica,sans-Serif" font-size="10.00" fill="#ffffff">lang.</text>
<text text-anchor="middle" x="331.93" y="-976.12" font-family="Helvetica,sans-Serif" font-size="10.00" fill="#ffffff">operand</text>
</g>
<!-- netqasm_lang_encoding&#45;&gt;netqasm_lang_operand -->
<g id="edge2" class="edge">
<title>netqasm_lang_encoding&#45;&gt;netqasm_lang_operand</title><style>.edge>path:hover{stroke-width:8}</style>
<path fill="none" stroke="black" d="M297.11,-1056C302.08,-1046.65 307.76,-1036 313.06,-1026.05"/>
<polygon fill="#f31616" stroke="black" points="316.18,-1027.63 317.79,-1017.16 310,-1024.34 316.18,-1027.63"/>
</g>
<!-- netqasm_lang_parsing_binary -->
<g id="node11" class="node">
<title>netqasm_lang_parsing_binary</title><style>.edge>path:hover{stroke-width:8}</style>
<ellipse fill="#a83838" stroke="black" cx="73.93" cy="-130.75" rx="43.68" ry="36.54"/>
<text text-anchor="middle" x="73.93" y="-144.75" font-family="Helvetica,sans-Serif" font-size="10.00" fill="#ffffff">netqasm.</text>
<text text-anchor="middle" x="73.93" y="-133.75" font-family="Helvetica,sans-Serif" font-size="10.00" fill="#ffffff">lang.</text>
<text text-anchor="middle" x="73.93" y="-122.75" font-family="Helvetica,sans-Serif" font-size="10.00" fill="#ffffff">parsing.</text>
<text text-anchor="middle" x="73.93" y="-111.75" font-family="Helvetica,sans-Serif" font-size="10.00" fill="#ffffff">binary</text>
</g>
<!-- netqasm_lang_encoding&#45;&gt;netqasm_lang_parsing_binary -->
<g id="edge3" class="edge">
<title>netqasm_lang_encoding&#45;&gt;netqasm_lang_parsing_binary</title><style>.edge>path:hover{stroke-width:8}</style>
<path fill="none" stroke="black" d="M276.58,-1054.66C272.27,-1036.35 266.21,-1011.93 259.93,-990.62"/>
<path fill="none" stroke="black" d="M259.93,-988.62C244.95,-937.75 196.45,-948.17 183.93,-896.64"/>
<path fill="none" stroke="black" d="M183.93,-894.64C157.31,-785.03 201.11,-731.66 125.93,-647.57 94.17,-612.04 54.87,-648.64 24.93,-611.57 -15.98,-560.89 5.93,-531.39 5.93,-466.26 5.93,-466.26 5.93,-466.26 5.93,-268.51 5.93,-232.42 25.16,-196.05 43.16,-169.89"/>
<polygon fill="#f31616" stroke="black" points="46.24,-171.61 49.19,-161.43 40.54,-167.54 46.24,-171.61"/>
</g>
<!-- netqasm_lang_parsing_text -->
<g id="node12" class="node">
<title>netqasm_lang_parsing_text</title><style>.edge>path:hover{stroke-width:8}</style>
<ellipse fill="#913030" stroke="black" cx="179.93" cy="-130.75" rx="43.68" ry="36.54"/>
<text text-anchor="middle" x="179.93" y="-144.75" font-family="Helvetica,sans-Serif" font-size="10.00" fill="#ffffff">netqasm.</text>
<text text-anchor="middle" x="179.93" y="-133.75" font-family="Helvetica,sans-Serif" font-size="10.00" fill="#ffffff">lang.</text>
<text text-anchor="middle" x="179.93" y="-122.75" font-family="Helvetica,sans-Serif" font-size="10.00" fill="#ffffff">parsing.</text>
<text text-anchor="middle" x="179.93" y="-111.75" font-family="Helvetica,sans-Serif" font-size="10.00" fill="#ffffff">text</text>
</g>
<!-- netqasm_lang_encoding&#45;&gt;netqasm_lang_parsing_text -->
<g id="edge4" class="edge">
<title>netqasm_lang_encoding&#45;&gt;netqasm_lang_parsing_text</title><style>.edge>path:hover{stroke-width:8}</style>
<path fill="none" stroke="black" d="M331.93,-362.5C322.95,-322.61 334.31,-311.33 331.93,-270.51"/>
<path fill="none" stroke="black" d="M331.93,-268.51C328.67,-212.55 271.6,-173.59 228.34,-151.95"/>
<polygon fill="#f31616" stroke="black" points="229.59,-148.67 219.07,-147.47 226.55,-154.97 229.59,-148.67"/>
</g>
<!-- netqasm_lang_subroutine -->
<g id="node13" class="node">
<title>netqasm_lang_subroutine</title><style>.edge>path:hover{stroke-width:8}</style>
<ellipse fill="#bc2f2f" stroke="black" cx="255.93" cy="-269.51" rx="48.17" ry="28.98"/>
<text text-anchor="middle" x="255.93" y="-278.01" font-family="Helvetica,sans-Serif" font-size="10.00" fill="#ffffff">netqasm.</text>
<text text-anchor="middle" x="255.93" y="-267.01" font-family="Helvetica,sans-Serif" font-size="10.00" fill="#ffffff">lang.</text>
<text text-anchor="middle" x="255.93" y="-256.01" font-family="Helvetica,sans-Serif" font-size="10.00" fill="#ffffff">subroutine</text>
</g>
<!-- netqasm_lang_encoding&#45;&gt;netqasm_lang_subroutine -->
<g id="edge5" class="edge">
<title>netqasm_lang_encoding&#45;&gt;netqasm_lang_subroutine</title><style>.edge>path:hover{stroke-width:8}</style>
<path fill="none" stroke="black" d="M259.93,-988.62C242.97,-936.04 260.59,-916.72 283.93,-866.64 292.61,-848.02 304.86,-849.53 312.93,-830.64 338.54,-770.76 331.93,-750.47 331.93,-685.34 331.93,-685.34 331.93,-685.34 331.93,-573.8 331.93,-480.77 349.7,-455.81 331.93,-364.5"/>
<path fill="none" stroke="black" d="M331.93,-362.5C326.45,-338.14 309.28,-316.32 292.64,-300.06"/>
<polygon fill="#f31616" stroke="black" points="294.78,-297.26 285.08,-292.99 290,-302.38 294.78,-297.26"/>
</g>
<!-- netqasm_lang_instr -->
<g id="node2" class="node">
<title>netqasm_lang_instr</title><style>.edge>path:hover{stroke-width:8}</style>
<ellipse fill="#ef0606" stroke="black" cx="219.93" cy="-363.5" rx="43.68" ry="28.98"/>
<text text-anchor="middle" x="219.93" y="-372" font-family="Helvetica,sans-Serif" font-size="10.00" fill="#ffffff">netqasm.</text>
<text text-anchor="middle" x="219.93" y="-361" font-family="Helvetica,sans-Serif" font-size="10.00" fill="#ffffff">lang.</text>
<text text-anchor="middle" x="219.93" y="-350" font-family="Helvetica,sans-Serif" font-size="10.00" fill="#ffffff">instr</text>
</g>
<!-- netqasm_lang_instr&#45;&gt;netqasm_lang_parsing_binary -->
<g id="edge6" class="edge">
<title>netqasm_lang_instr&#45;&gt;netqasm_lang_parsing_binary</title><style>.edge>path:hover{stroke-width:8}</style>
<path fill="none" stroke="black" d="M210.12,-334.99C206.32,-323.76 202.13,-310.6 198.93,-298.5 188.05,-257.3 193.06,-245.07 179.93,-204.52"/>
<path fill="none" stroke="black" d="M179.93,-203.52C179.83,-203.29 145.76,-180.24 116.28,-160.33"/>
<polygon fill="#ef0606" stroke="black" points="117.96,-157.25 107.72,-154.55 114.04,-163.05 117.96,-157.25"/>
</g>
<!-- netqasm_lang_instr&#45;&gt;netqasm_lang_parsing_text -->
<g id="edge7" class="edge">
<title>netqasm_lang_instr&#45;&gt;netqasm_lang_parsing_text</title><style>.edge>path:hover{stroke-width:8}</style>
<path fill="none" stroke="black" d="M179.93,-203.52C177.29,-195.34 176.06,-186.36 175.69,-177.6"/>
<polygon fill="#ef0606" stroke="black" points="179.19,-177.45 175.62,-167.48 172.19,-177.5 179.19,-177.45"/>
</g>
<!-- netqasm_lang_instr&#45;&gt;netqasm_lang_subroutine -->
<g id="edge8" class="edge">
<title>netqasm_lang_instr&#45;&gt;netqasm_lang_subroutine</title><style>.edge>path:hover{stroke-width:8}</style>
<path fill="none" stroke="black" d="M230.74,-334.9C234.12,-326.26 237.9,-316.58 241.49,-307.41"/>
<polygon fill="#ef0606" stroke="black" points="244.75,-308.68 245.14,-298.09 238.24,-306.13 244.75,-308.68"/>
</g>
<!-- netqasm_lang_instr_base&#45;&gt;netqasm_lang_instr -->
<g id="edge9" class="edge">
<title>netqasm_lang_instr_base&#45;&gt;netqasm_lang_instr</title><style>.edge>path:hover{stroke-width:8}</style>
<path fill="none" stroke="black" d="M268.79,-757.69C271.3,-746.12 273.69,-733.13 274.93,-721.1 288.34,-591.44 292.93,-553.18 254.93,-428.49 251.89,-418.49 247.17,-408.3 242.18,-399.06"/>
<polygon fill="#bc2f2f" stroke="black" points="245.12,-397.16 237.14,-390.19 239.03,-400.62 245.12,-397.16"/>
</g>
<!-- netqasm_lang_instr_core -->
<g id="node4" class="node">
<title>netqasm_lang_instr_core</title><style>.edge>path:hover{stroke-width:8}</style>
<ellipse fill="#b62020" stroke="black" cx="221.93" cy="-684.34" rx="43.68" ry="36.54"/>
<text text-anchor="middle" x="221.93" y="-698.34" font-family="Helvetica,sans-Serif" font-size="10.00" fill="#ffffff">netqasm.</text>
<text text-anchor="middle" x="221.93" y="-687.34" font-family="Helvetica,sans-Serif" font-size="10.00" fill="#ffffff">lang.</text>
<text text-anchor="middle" x="221.93" y="-676.34" font-family="Helvetica,sans-Serif" font-size="10.00" fill="#ffffff">instr.</text>
<text text-anchor="middle" x="221.93" y="-665.34" font-family="Helvetica,sans-Serif" font-size="10.00" fill="#ffffff">core</text>
</g>
<!-- netqasm_lang_instr_base&#45;&gt;netqasm_lang_instr_core -->
<g id="edge10" class="edge">
<title>netqasm_lang_instr_base&#45;&gt;netqasm_lang_instr_core</title><style>.edge>path:hover{stroke-width:8}</style>
<path fill="none" stroke="black" d="M247.7,-758.26C244.45,-749.05 240.89,-738.97 237.48,-729.33"/>
<polygon fill="#bc2f2f" stroke="black" points="240.78,-728.15 234.14,-719.89 234.18,-730.48 240.78,-728.15"/>
</g>
<!-- netqasm_lang_instr_flavour -->
<g id="node5" class="node">
<title>netqasm_lang_instr_flavour</title><style>.edge>path:hover{stroke-width:8}</style>
<ellipse fill="#a13535" stroke="black" cx="201.93" cy="-465.26" rx="43.68" ry="36.54"/>
<text text-anchor="middle" x="201.93" y="-479.26" font-family="Helvetica,sans-Serif" font-size="10.00" fill="#ffffff">netqasm.</text>
<text text-anchor="middle" x="201.93" y="-468.26" font-family="Helvetica,sans-Serif" font-size="10.00" fill="#ffffff">lang.</text>
<text text-anchor="middle" x="201.93" y="-457.26" font-family="Helvetica,sans-Serif" font-size="10.00" fill="#ffffff">instr.</text>
<text text-anchor="middle" x="201.93" y="-446.26" font-family="Helvetica,sans-Serif" font-size="10.00" fill="#ffffff">flavour</text>
</g>
<!-- netqasm_lang_instr_core&#45;&gt;netqasm_lang_instr_flavour -->
<g id="edge11" class="edge">
<title>netqasm_lang_instr_core&#45;&gt;netqasm_lang_instr_flavour</title><style>.edge>path:hover{stroke-width:8}</style>
<path fill="none" stroke="black" d="M231.92,-648.29C238.87,-618.61 245.49,-575.09 236.93,-538.03 234.55,-527.69 230.46,-517.12 225.9,-507.37"/>
<polygon fill="#b62020" stroke="black" points="228.99,-505.74 221.43,-498.32 222.72,-508.84 228.99,-505.74"/>
</g>
<!-- netqasm_lang_instr_nv -->
<g id="node6" class="node">
<title>netqasm_lang_instr_nv</title><style>.edge>path:hover{stroke-width:8}</style>
<ellipse fill="#a83838" stroke="black" cx="77.93" cy="-574.8" rx="43.68" ry="36.54"/>
<text text-anchor="middle" x="77.93" y="-588.8" font-family="Helvetica,sans-Serif" font-size="10.00" fill="#ffffff">netqasm.</text>
<text text-anchor="middle" x="77.93" y="-577.8" font-family="Helvetica,sans-Serif" font-size="10.00" fill="#ffffff">lang.</text>
<text text-anchor="middle" x="77.93" y="-566.8" font-family="Helvetica,sans-Serif" font-size="10.00" fill="#ffffff">instr.</text>
<text text-anchor="middle" x="77.93" y="-555.8" font-family="Helvetica,sans-Serif" font-size="10.00" fill="#ffffff">nv</text>
</g>
<!-- netqasm_lang_instr_core&#45;&gt;netqasm_lang_instr_nv -->
<g id="edge12" class="edge">
<title>netqasm_lang_instr_core&#45;&gt;netqasm_lang_instr_nv</title><style>.edge>path:hover{stroke-width:8}</style>
<path fill="none" stroke="black" d="M189.62,-659.2C168.5,-643.43 140.75,-622.71 118.19,-605.86"/>
<polygon fill="#b62020" stroke="black" points="120.25,-603.03 110.14,-599.85 116.06,-608.64 120.25,-603.03"/>
</g>
<!-- netqasm_lang_instr_vanilla -->
<g id="node7" class="node">
<title>netqasm_lang_instr_vanilla</title><style>.edge>path:hover{stroke-width:8}</style>
<ellipse fill="#a83838" stroke="black" cx="183.93" cy="-574.8" rx="43.68" ry="36.54"/>
<text text-anchor="middle" x="183.93" y="-588.8" font-family="Helvetica,sans-Serif" font-size="10.00" fill="#ffffff">netqasm.</text>
<text text-anchor="middle" x="183.93" y="-577.8" font-family="Helvetica,sans-Serif" font-size="10.00" fill="#ffffff">lang.</text>
<text text-anchor="middle" x="183.93" y="-566.8" font-family="Helvetica,sans-Serif" font-size="10.00" fill="#ffffff">instr.</text>
<text text-anchor="middle" x="183.93" y="-555.8" font-family="Helvetica,sans-Serif" font-size="10.00" fill="#ffffff">vanilla</text>
</g>
<!-- netqasm_lang_instr_core&#45;&gt;netqasm_lang_instr_vanilla -->
<g id="edge13" class="edge">
<title>netqasm_lang_instr_core&#45;&gt;netqasm_lang_instr_vanilla</title><style>.edge>path:hover{stroke-width:8}</style>
<path fill="none" stroke="black" d="M209.7,-648.72C206.45,-639.51 202.89,-629.43 199.48,-619.8"/>
<polygon fill="#b62020" stroke="black" points="202.78,-618.61 196.14,-610.35 196.18,-620.94 202.78,-618.61"/>
</g>
<!-- netqasm_lang_instr_flavour&#45;&gt;netqasm_lang_instr -->
<g id="edge14" class="edge">
<title>netqasm_lang_instr_flavour&#45;&gt;netqasm_lang_instr</title><style>.edge>path:hover{stroke-width:8}</style>
<path fill="none" stroke="black" d="M208.33,-428.8C209.88,-420.19 211.55,-410.95 213.13,-402.23"/>
<polygon fill="#a13535" stroke="black" points="216.58,-402.77 214.91,-392.31 209.69,-401.53 216.58,-402.77"/>
</g>
<!-- netqasm_lang_instr_nv&#45;&gt;netqasm_lang_instr_flavour -->
<g id="edge15" class="edge">
<title>netqasm_lang_instr_nv&#45;&gt;netqasm_lang_instr_flavour</title><style>.edge>path:hover{stroke-width:8}</style>
<path fill="none" stroke="black" d="M107.95,-547.76C124.73,-533.21 145.82,-514.92 163.77,-499.36"/>
<polygon fill="#a83838" stroke="black" points="166.5,-501.62 171.76,-492.42 161.92,-496.33 166.5,-501.62"/>
</g>
<!-- netqasm_lang_instr_vanilla&#45;&gt;netqasm_lang_instr_flavour -->
<g id="edge16" class="edge">
<title>netqasm_lang_instr_vanilla&#45;&gt;netqasm_lang_instr_flavour</title><style>.edge>path:hover{stroke-width:8}</style>
<path fill="none" stroke="black" d="M189.88,-538.29C191.31,-529.75 192.85,-520.52 194.34,-511.61"/>
<polygon fill="#a83838" stroke="black" points="197.8,-512.17 196,-501.73 190.89,-511.01 197.8,-512.17"/>
</g>
<!-- netqasm_lang_ir -->
<g id="node8" class="node">
<title>netqasm_lang_ir</title><style>.edge>path:hover{stroke-width:8}</style>
<ellipse fill="#b03a3a" stroke="black" cx="369.93" cy="-895.64" rx="43.68" ry="28.98"/>
<text text-anchor="middle" x="369.93" y="-904.14" font-family="Helvetica,sans-Serif" font-size="10.00" fill="#ffffff">netqasm.</text>
<text text-anchor="middle" x="369.93" y="-893.14" font-family="Helvetica,sans-Serif" font-size="10.00" fill="#ffffff">lang.</text>
<text text-anchor="middle" x="369.93" y="-882.14" font-family="Helvetica,sans-Serif" font-size="10.00" fill="#ffffff">ir</text>
</g>
<!-- netqasm_lang_ir&#45;&gt;netqasm_lang_parsing_text -->
<g id="edge17" class="edge">
<title>netqasm_lang_ir&#45;&gt;netqasm_lang_parsing_text</title><style>.edge>path:hover{stroke-width:8}</style>
<path fill="none" stroke="black" d="M369.93,-866.25C369.93,-846.29 369.93,-818.95 369.93,-794.87"/>
</g>
<!-- netqasm_lang_operand&#45;&gt;netqasm_lang_instr_base -->
<g id="edge18" class="edge">
<title>netqasm_lang_operand&#45;&gt;netqasm_lang_instr_base</title><style>.edge>path:hover{stroke-width:8}</style>
<path fill="none" stroke="black" d="M317.91,-962.13C309.5,-944.21 300.03,-919.69 297.93,-896.64"/>
<path fill="none" stroke="black" d="M297.93,-894.64C296.15,-875.01 289.29,-854.48 281.88,-837.18"/>
<polygon fill="#d31717" stroke="black" points="285.02,-835.63 277.74,-827.93 278.63,-838.49 285.02,-835.63"/>
</g>
<!-- netqasm_lang_operand&#45;&gt;netqasm_lang_instr_core -->
<g id="edge19" class="edge">
<title>netqasm_lang_operand&#45;&gt;netqasm_lang_instr_core</title><style>.edge>path:hover{stroke-width:8}</style>
<path fill="none" stroke="black" d="M305.7,-966.12C275.18,-938.04 226.46,-886.8 206.93,-830.64 195.64,-798.18 200.51,-759.37 207.59,-730.02"/>
<polygon fill="#d31717" stroke="black" points="211.05,-730.62 210.17,-720.06 204.28,-728.87 211.05,-730.62"/>
</g>
<!-- netqasm_lang_operand&#45;&gt;netqasm_lang_ir -->
<g id="edge20" class="edge">
<title>netqasm_lang_operand&#45;&gt;netqasm_lang_ir</title><style>.edge>path:hover{stroke-width:8}</style>
<path fill="none" stroke="black" d="M343.13,-961.52C346.77,-952.71 350.87,-942.78 354.75,-933.38"/>
<polygon fill="#d31717" stroke="black" points="358.1,-934.44 358.69,-923.86 351.63,-931.77 358.1,-934.44"/>
</g>
<!-- netqasm_lang_operand&#45;&gt;netqasm_lang_parsing_text -->
<g id="edge21" class="edge">
<title>netqasm_lang_operand&#45;&gt;netqasm_lang_parsing_text</title><style>.edge>path:hover{stroke-width:8}</style>
<path fill="none" stroke="black" d="M297.93,-894.64C292.98,-840.18 369.93,-849.55 369.93,-794.87"/>
<path fill="none" stroke="black" d="M369.93,-792.87C369.93,-696.4 369.93,-672.28 369.93,-575.8 369.93,-575.8 369.93,-575.8 369.93,-464.26 369.93,-405.61 357.54,-391.99 345.93,-334.5 340.17,-305.97 334.83,-299.48 331.93,-270.51"/>
</g>
<!-- netqasm_lang_parsing -->
<g id="node10" class="node">
<title>netqasm_lang_parsing</title><style>.edge>path:hover{stroke-width:8}</style>
<ellipse fill="#ac4949" stroke="black" cx="126.93" cy="-28.99" rx="43.68" ry="28.98"/>
<text text-anchor="middle" x="126.93" y="-37.49" font-family="Helvetica,sans-Serif" font-size="10.00" fill="#ffffff">netqasm.</text>
<text text-anchor="middle" x="126.93" y="-26.49" font-family="Helvetica,sans-Serif" font-size="10.00" fill="#ffffff">lang.</text>
<text text-anchor="middle" x="126.93" y="-15.49" font-family="Helvetica,sans-Serif" font-size="10.00" fill="#ffffff">parsing</text>
</g>
<!-- netqasm_lang_parsing_binary&#45;&gt;netqasm_lang_parsing -->
<g id="edge22" class="edge">
<title>netqasm_lang_parsing_binary&#45;&gt;netqasm_lang_parsing</title><style>.edge>path:hover{stroke-width:8}</style>
<path fill="none" stroke="black" d="M91.43,-96.81C96.74,-86.82 102.6,-75.79 108,-65.63"/>
<polygon fill="#a83838" stroke="black" points="111.2,-67.07 112.8,-56.59 105.02,-63.78 111.2,-67.07"/>
</g>
<!-- netqasm_lang_parsing_text&#45;&gt;netqasm_lang_parsing -->
<g id="edge23" class="edge">
<title>netqasm_lang_parsing_text&#45;&gt;netqasm_lang_parsing</title><style>.edge>path:hover{stroke-width:8}</style>
<path fill="none" stroke="black" d="M162.43,-96.81C157.12,-86.82 151.27,-75.79 145.87,-65.63"/>
<polygon fill="#913030" stroke="black" points="148.85,-63.78 141.07,-56.59 142.67,-67.07 148.85,-63.78"/>
</g>
<!-- netqasm_lang_subroutine&#45;&gt;netqasm_lang_parsing_binary -->
<g id="edge24" class="edge">
<title>netqasm_lang_subroutine&#45;&gt;netqasm_lang_parsing_binary</title><style>.edge>path:hover{stroke-width:8}</style>
<path fill="none" stroke="black" d="M242.68,-241.61C236.11,-229.61 227.53,-215.7 217.93,-204.52"/>
<path fill="none" stroke="black" d="M217.93,-203.52C189.6,-170.52 165.41,-187.81 126.93,-167.52 123.02,-165.46 119.03,-163.17 115.1,-160.77"/>
<polygon fill="#bc2f2f" stroke="black" points="116.94,-157.79 106.61,-155.41 113.2,-163.71 116.94,-157.79"/>
</g>
<!-- netqasm_lang_subroutine&#45;&gt;netqasm_lang_parsing_text -->
<g id="edge25" class="edge">
<title>netqasm_lang_subroutine&#45;&gt;netqasm_lang_parsing_text</title><style>.edge>path:hover{stroke-width:8}</style>
<path fill="none" stroke="black" d="M217.93,-203.52C210.62,-195 204.18,-184.84 198.78,-174.88"/>
<polygon fill="#bc2f2f" stroke="black" points="201.81,-173.12 194.11,-165.84 195.59,-176.34 201.81,-173.12"/>
</g>
<!-- netqasm_lang_symbols -->
<g id="node14" class="node">
<title>netqasm_lang_symbols</title><style>.edge>path:hover{stroke-width:8}</style>
<ellipse fill="#db2f2f" stroke="black" cx="412.93" cy="-1083.6" rx="43.68" ry="28.98"/>
<text text-anchor="middle" x="412.93" y="-1092.1" font-family="Helvetica,sans-Serif" font-size="10.00" fill="#ffffff">netqasm.</text>
<text text-anchor="middle" x="412.93" y="-1081.1" font-family="Helvetica,sans-Serif" font-size="10.00" fill="#ffffff">lang.</text>
<text text-anchor="middle" x="412.93" y="-1070.1" font-family="Helvetica,sans-Serif" font-size="10.00" fill="#ffffff">symbols</text>
</g>
<!-- netqasm_lang_symbols&#45;&gt;netqasm_lang_ir -->
<g id="edge26" class="edge">
<title>netqasm_lang_symbols&#45;&gt;netqasm_lang_ir</title><style>.edge>path:hover{stroke-width:8}</style>
<path fill="none" stroke="black" d="M426.58,-1055.92C434.46,-1037.91 442.69,-1013.38 441.93,-990.62"/>
<path fill="none" stroke="black" d="M441.93,-988.62C441.1,-963.48 424.18,-941.12 406.95,-924.73"/>
<polygon fill="#db2f2f" stroke="black" points="408.84,-921.73 399.07,-917.64 404.16,-926.93 408.84,-921.73"/>
</g>
<!-- netqasm_lang_symbols&#45;&gt;netqasm_lang_operand -->
<g id="edge27" class="edge">
<title>netqasm_lang_symbols&#45;&gt;netqasm_lang_operand</title><style>.edge>path:hover{stroke-width:8}</style>
<path fill="none" stroke="black" d="M391.23,-1057.95C381.71,-1047.14 370.41,-1034.31 360.24,-1022.76"/>
<polygon fill="#db2f2f" stroke="black" points="362.65,-1020.21 353.42,-1015.02 357.4,-1024.83 362.65,-1020.21"/>
</g>
<!-- netqasm_lang_symbols&#45;&gt;netqasm_lang_parsing_text -->
<g id="edge28" class="edge">
<title>netqasm_lang_symbols&#45;&gt;netqasm_lang_parsing_text</title><style>.edge>path:hover{stroke-width:8}</style>
<path fill="none" stroke="black" d="M441.93,-988.62C440.11,-933.78 444.06,-917.28 422.93,-866.64 407.66,-830.05 369.93,-834.53 369.93,-794.87"/>
</g>
<!-- netqasm_typing -->
<g id="node15" class="node">
<title>netqasm_typing</title><style>.edge>path:hover{stroke-width:8}</style>
<ellipse fill="#b34c4c" stroke="black" cx="553.93" cy="-895.64" rx="54.99" ry="18"/>
<text text-anchor="middle" x="553.93" y="-893.14" font-family="Helvetica,sans-Serif" font-size="10.00" fill="#ffffff">netqasm.typing</text>
</g>
<!-- numpy -->
<g id="node16" class="node">
<title>numpy</title><style>.edge>path:hover{stroke-width:8}</style>
<ellipse fill="#26d926" stroke="black" cx="111.93" cy="-1083.6" rx="29.37" ry="18"/>
<text text-anchor="middle" x="111.93" y="-1081.1" font-family="Helvetica,sans-Serif" font-size="10.00" fill="#000000">numpy</text>
</g>
<!-- numpy&#45;&gt;netqasm_lang_instr_core -->
<g id="edge29" class="edge">
<title>numpy&#45;&gt;netqasm_lang_instr_core</title><style>.edge>path:hover{stroke-width:8}</style>
<path fill="none" stroke="black" d="M111.93,-792.87C120.27,-757.7 150.54,-729.66 177.22,-711.04"/>
<polygon fill="#26d926" stroke="black" points="179.37,-713.81 185.72,-705.33 175.47,-708 179.37,-713.81"/>
</g>
<!-- numpy&#45;&gt;netqasm_lang_instr_nv -->
<g id="edge30" class="edge">
<title>numpy&#45;&gt;netqasm_lang_instr_nv</title><style>.edge>path:hover{stroke-width:8}</style>
<path fill="none" stroke="black" d="M109.22,-1065.42C102.67,-1020.3 88.21,-895 111.93,-794.87"/>
<path fill="none" stroke="black" d="M111.93,-792.87C125.44,-747.03 107.83,-732.95 111.93,-685.34"/>
<path fill="none" stroke="black" d="M111.93,-683.34C113.83,-661.31 107.44,-637.79 99.7,-618.38"/>
<polygon fill="#26d926" stroke="black" points="102.82,-616.77 95.7,-608.92 96.37,-619.49 102.82,-616.77"/>
</g>
<!-- numpy&#45;&gt;netqasm_lang_instr_vanilla -->
<g id="edge31" class="edge">
<title>numpy&#45;&gt;netqasm_lang_instr_vanilla</title><style>.edge>path:hover{stroke-width:8}</style>
<path fill="none" stroke="black" d="M111.93,-683.34C114.3,-655.79 131.03,-629.88 147.76,-610.4"/>
<polygon fill="#26d926" stroke="black" points="150.57,-612.5 154.64,-602.72 145.36,-607.83 150.57,-612.5"/>
</g>
<!-- typing_extensions -->
<g id="node17" class="node">
<title>typing_extensions</title><style>.edge>path:hover{stroke-width:8}</style>
<ellipse fill="#5353b6" stroke="black" cx="553.93" cy="-1083.6" rx="62.3" ry="18"/>
<text text-anchor="middle" x="553.93" y="-1081.1" font-family="Helvetica,sans-Serif" font-size="10.00" fill="#ffffff">typing_extensions</text>
</g>
<!-- typing_extensions&#45;&gt;netqasm_typing -->
<g id="edge32" class="edge">
<title>typing_extensions&#45;&gt;netqasm_typing</title><style>.edge>path:hover{stroke-width:8}</style>
<path fill="none" stroke="black" d="M553.93,-1065.44C553.93,-1033.06 553.93,-962.71 553.93,-923.83"/>
<polygon fill="#5353b6" stroke="black" points="557.43,-923.76 553.93,-913.76 550.43,-923.76 557.43,-923.76"/>
</g>
</g>
</svg>
